<svg id="svg" xmlns="http://www.w3.org/2000/svg" xmlns:xlink="http://www.w3.org/1999/xlink" width="50px" height="50px" viewBox="0, 0, 400,353.2105525136884"><g id="svgg"><path id="path0" d="M45.396 0.293 C 32.030 2.039,24.701 8.545,23.304 19.905 C 23.163 21.045,23.096 42.799,23.096 86.904 C 23.095 156.406,23.130 153.928,22.095 158.039 C 19.486 168.400,10.175 176.406,0.735 176.406 C -0.579 176.406,0.144 176.723,2.091 177.001 C 11.768 178.383,19.368 185.137,22.033 194.724 C 23.146 198.731,23.096 195.359,23.096 266.267 C 23.096 309.919,23.164 332.178,23.301 333.305 C 24.562 343.667,30.998 350.121,42.334 352.392 C 45.893 353.105,48.308 353.211,61.060 353.211 L 73.469 353.211 73.469 347.260 L 73.469 341.310 67.446 341.205 C 51.496 340.926,47.763 337.596,46.984 322.950 C 46.878 320.958,46.797 294.345,46.794 260.890 C 46.791 220.931,46.723 201.824,46.579 200.761 C 44.999 189.047,36.391 179.442,25.386 177.111 C 23.031 176.613,23.029 176.602,25.187 176.105 C 35.999 173.616,43.424 166.030,46.232 154.604 L 46.672 152.812 46.796 90.791 C 46.924 26.936,46.913 27.766,47.702 23.834 C 49.535 14.708,54.467 11.920,68.840 11.886 L 73.469 11.875 73.469 5.937 L 73.469 0.000 60.378 0.023 C 51.227 0.039,46.718 0.120,45.396 0.293 M326.531 6.002 L 326.531 12.005 328.771 11.875 C 342.439 11.085,349.443 14.172,351.707 21.985 C 352.970 26.343,352.881 21.721,353.013 90.095 C 353.148 159.648,352.995 153.117,354.597 157.914 C 357.732 167.301,365.434 174.220,374.928 176.176 C 376.922 176.587,376.923 176.638,374.941 177.000 C 364.510 178.904,356.199 187.414,353.563 198.890 L 353.125 200.796 352.998 263.216 C 352.906 308.185,352.808 326.024,352.645 327.028 C 350.819 338.315,347.036 340.973,332.454 341.213 L 326.531 341.311 326.531 347.273 L 326.531 353.235 340.119 353.159 C 354.821 353.076,355.323 353.044,359.744 351.895 C 367.875 349.782,373.379 344.918,375.598 337.880 C 376.764 334.184,376.702 338.156,376.709 267.198 C 376.715 201.902,376.736 199.798,377.421 196.427 C 379.488 186.250,387.308 178.668,397.366 177.087 C 399.855 176.696,400.341 176.555,399.502 176.467 C 386.473 175.093,378.293 166.646,376.915 153.140 C 376.772 151.738,376.704 130.203,376.701 85.843 C 376.698 43.649,376.627 20.115,376.499 19.214 C 374.937 8.231,367.077 1.661,353.766 0.211 C 352.613 0.085,346.725 0.000,339.182 0.000 L 326.531 0.000 326.531 6.002 M163.166 70.023 C 143.145 71.336,127.430 81.645,117.532 99.958 C 105.558 122.115,106.771 153.141,120.466 174.955 L 121.617 176.789 120.864 177.842 C 107.070 197.121,105.388 230.072,117.050 252.563 C 125.239 268.358,138.403 278.680,154.512 281.938 C 161.674 283.386,153.471 283.273,244.052 283.176 L 290.493 283.126 290.493 259.932 L 290.493 236.739 231.309 236.687 L 172.125 236.635 170.234 235.976 C 163.201 233.526,159.085 226.932,159.086 218.118 C 159.087 210.233,162.655 203.293,168.235 200.319 L 169.394 199.701 229.943 199.701 L 290.493 199.701 290.493 176.508 L 290.493 153.315 231.309 153.263 L 172.125 153.211 170.638 152.750 C 155.977 148.208,154.959 122.758,169.193 116.651 C 172.134 115.390,167.125 115.483,231.906 115.482 L 290.493 115.480 290.493 92.816 L 290.493 70.151 243.753 70.018 C 198.197 69.889,165.175 69.891,163.166 70.023 " stroke="none" fill="#FFFFFF" fill-rule="evenodd"></path></g></svg>