<svg height="64" viewBox="7.727 7.821 1.1915776 1.1915543" width="64" xmlns="http://www.w3.org/2000/svg"><g transform="matrix(.02559999 0 0 .02559999 7.529189 7.620782)"><path d="m48.939024 54.318963h-35.781c-3.006 0-5.4310004-2.425-5.4310004-5.334v-35.781a5.317 5.317 0 0 1 5.3330004-5.3329995h35.781c3.007-.097 5.432 2.3269995 5.432 5.2359995v35.781c0 3.007-2.424 5.431-5.334 5.431" fill="#272727"/><path d="m32.648024 44.815963c8.242-1.066 13.673-9.115 11.637-17.26-1.455-5.527-6.207-9.697-11.831-10.279-8.437-.97-15.806 5.915-15.418 14.448.388 8.146 7.661 14.157 15.71 13.091z" fill="#85bf25"/></g></svg>